<?xml version="1.0" encoding="UTF-8" standalone="no"?>
<svg xmlns="http://www.w3.org/2000/svg" xmlns:svg="http://www.w3.org/2000/svg" width="280" height="280" preserveAspectRatio="xMidYMid meet" version="1.1">
    <style>
        .s {
            fill: none;
            stroke-linecap: round;
            stroke-linejoin: miter;
            stroke-miterlimit: 4;
        }
        .b {
            stroke: #000000;
            stroke-width: 8;
        }
        .w {
            stroke: #ffffff;
            stroke-width: 13;
        }
    </style>
    <rect width="280" height="75" x="0" y="0" style="fill:#6fd6f7"/>
    <rect width="280" height="75" x="0" y="102" style="fill:#f2be2c"/>
    <rect width="280" height="75" x="0" y="204" style="fill:#d8e61f"/>
    <ellipse cx="88.999359" cy="48.862801" rx="32" ry="35" style="fill:#ffffff;stroke:#ffffff;stroke-width:13"/>
    <path d="m 33.49936,28.6628 85.8,15.2"  class="s w"/>
    <path d="m 72.59936,49.6628 v 0"  class="s w"/>
    <path d="m 64.39936,69.8628 c 7.8,-0.3 12.5,-2.1 17.4,-6.3"  class="s w" style="stroke-width:10"/>
    <path d="m 50.39936,120.2628 20.3,23.5 36.2,-31.4 40.6,20 -47.3,36.8"  class="s w"/>
    <path d="m 104.09936,266.0628 -46.3,-62.2 68.3,-30.8 46.7,48.6 73.7,-4.1"  class="s w"/>
    <path d="m 96.49936,83.6628 29.8,89.6" class="s w"/>
    <ellipse cx="88.999359" cy="48.862801" rx="32" ry="35" class="s b"/>
    <path d="m 33.39936,28.6628 85.8,15.3" class="s b" />
    <path d="m 72.49936,49.6628 v 0" class="s b"/>
    <path d="m 64.19936,69.8628 c 7.8,-0.3 12.5,-2.1 17.4,-6.3" class="s b" style="stroke-width:5"/>
    <path d="m 50.19936,120.2628 20.3,23.5 36.2,-31.4 40.6,20 -47.3,36.8" class="s b"/>
    <path d="m 103.99936,266.0628 -46.3,-62.2 68.3,-30.8 46.7,48.6 73.7,-4.1" class="s b"/>
    <path d="m 96.29936,83.6628 29.9,89.6" class="s b"/>
</svg>
